<svg width="19" height="18" viewBox="0 0 19 18" fill="none" xmlns="http://www.w3.org/2000/svg">
<path d="M12.3449 14.0303C12.4855 13.8896 12.5645 13.6989 12.5645 13.5C12.5645 13.3011 12.4855 13.1104 12.3449 12.9698L8.90536 9.53025C8.7685 9.38765 8.69207 9.19766 8.69207 9C8.69207 8.80235 8.7685 8.61235 8.90536 8.46975L12.3449 5.03025C12.4815 4.8888 12.5571 4.69935 12.5554 4.5027C12.5537 4.30605 12.4748 4.11794 12.3357 3.97889C12.1967 3.83983 12.0086 3.76095 11.8119 3.75924C11.6153 3.75754 11.4258 3.83313 11.2844 3.96975L7.84486 7.4085C7.63589 7.61744 7.47012 7.86549 7.35703 8.1385C7.24393 8.41151 7.18572 8.70412 7.18572 8.99963C7.18572 9.29513 7.24393 9.58775 7.35703 9.86075C7.47012 10.1338 7.63589 10.3818 7.84486 10.5908L11.2844 14.0303C11.425 14.1709 11.6157 14.2498 11.8146 14.2498C12.0135 14.2498 12.2042 14.1709 12.3449 14.0303Z" fill="black"/>
</svg>
